# xmcd
#
# Track frame offsets: 
#        150
#        11496
#        26556
#        41373
#        54984
#        70278
#        82368
#        95748
#        109208
#        123739
#        137498
#        152782
#
# Disc length: 2166 seconds
#
# Revision: 0
# Processed by: cddbd v1.5PL3 Copyright (c) Steve Scherf et al.
# Submitted via: ExactAudioCopy v0.95a3
#
DISCID=a308740c
DTITLE=Homero Guerrero Jr Y Los KDTs De Linares - Tomates O No Tomates
DYEAR=2003
DGENRE=Latin
TTITLE0=Tomates O No Tomates
TTITLE1=Como Hay Ca...
TTITLE2=El Burro De Mi Comadre
TTITLE3=Botas De Avestruz
TTITLE4=Cruz Negra
TTITLE5=Seis Mancornadas
TTITLE6=Anda Borracho El Pelao
TTITLE7=Andando En La Borrachera
TTITLE8=La Thompson Calbire 45
TTITLE9=La Ultima Pagina
TTITLE10=Señor Diputado
TTITLE11=El Pan De Don Chon
EXTD=
EXTT0=
EXTT1=
EXTT2=
EXTT3=
EXTT4=
EXTT5=
EXTT6=
EXTT7=
EXTT8=
EXTT9=
EXTT10=
EXTT11=
PLAYORDER=
